<svg width="41" height="40" viewBox="0 0 41 40" fill="none" xmlns="http://www.w3.org/2000/svg">
<path d="M23.6072 9.94329C21.2058 8.70553 17.2667 8.65218 14.7979 9.98363C12.3613 11.2977 10.6461 13.6644 9.37992 16.0746C6.53491 21.4903 8.50248 28.1245 14.517 30.0919C17.6494 31.1165 21.0594 31.4911 24.1089 30.0515C26.2477 29.0418 28.331 27.0393 29.3463 24.8682C30.2611 22.9119 30.4643 20.9581 29.567 18.9789C28.9255 17.564 28.0766 16.3405 27.5804 14.8443M15.3752 18.4682C15.865 19.2001 16.1989 20.0141 16.5845 20.8053C16.7549 21.155 16.8798 21.5547 17.1035 21.8747C17.2193 22.0403 17.2288 22.1192 17.3423 21.9686C17.6944 21.5011 18.3443 21.1916 18.7955 20.8314C20.1243 19.7704 21.4976 18.7912 22.8906 17.8162C25.9215 15.6947 28.9126 13.4969 32.098 11.6136" stroke="black" stroke-width="2" stroke-linecap="round"/>
</svg>
