<svg width="499" height="211" viewBox="0 0 499 211" fill="none" xmlns="http://www.w3.org/2000/svg">
<path d="M36.3543 131.976C36.3543 125.58 35.397 119.395 33.4105 113.24C32.5349 110.526 30.7935 108.318 29.0486 106.029C26.2259 102.327 23.229 98.7431 20.3966 95.0488C11.9962 84.0925 6.45316 71.0936 5.30037 57.6918C3.98383 42.3865 8.88932 26.3979 22.8916 17.044C38.1061 6.88034 59.2575 2.23892 77.5682 6.69183C86.622 8.8936 94.5543 13.6598 99.3598 21.1782C105.11 30.1738 106.812 40.0159 106.109 50.3163C105.261 62.7515 98.2828 86.6646 98.2828 86.6646C98.2828 86.6646 94.5272 106.604 93.5439 116.795" stroke="#FFD52D" stroke-width="10" stroke-linecap="round"/>
<path d="M60.9708 80.9298C64.6674 87.4571 64.9856 97.0358 65.9981 104.087C67.9563 117.726 69.1044 131.456 69.554 145.206C69.6211 147.26 69.6764 149.314 69.7216 151.369M69.7216 151.369C69.8596 157.635 69.9039 163.905 69.9059 170.176M69.7216 151.369C57.7179 151.501 43.3099 150.471 32.2783 154.13M69.7216 151.369C70.7472 151.357 71.7552 151.338 72.742 151.306C81.324 151.028 89.9063 151.08 98.4917 151.08M69.9059 170.176C69.9078 176.395 69.8681 182.614 69.8366 188.831M69.9059 170.176C69.0527 170.254 68.1963 170.323 67.3365 170.384C62.9496 170.695 58.5725 171.023 54.1945 171.429C51.8684 171.645 48.781 171.524 46.6134 172.475M69.9059 170.176C76.5974 169.567 83.0922 168.424 89.5122 166.453M69.8366 188.831C69.8162 192.854 69.7992 196.876 69.7992 200.897M69.8366 188.831C65.2194 189.197 60.6098 189.653 56.0103 190.165M69.8366 188.831C77.0611 188.259 84.304 187.907 91.555 187.907M145.188 180.124C141.818 170.928 129.644 167.412 122.378 171.62C113.134 176.973 112.222 196.108 125.332 194.885C130.048 194.445 137.148 193.311 142.072 188.886C144.041 187.116 145.188 186.084 145.188 180.124ZM145.188 180.124C146.011 182.368 147.047 196.201 148.863 198.989M207.369 128.888C212.041 143.185 216.486 156.971 218.404 171.814C219.177 177.792 219.452 183.791 220.121 189.775C220.188 190.378 222.462 201.051 222.573 200.958C223.882 199.873 223.814 193.404 224.167 191.921C225.61 185.867 228.032 180.054 230.482 174.299C233.423 167.391 234.941 159.905 238.268 153.288M229.44 179.721C236.282 184.799 241.834 193.385 249.304 194.971M317.845 185.512C319.293 185.834 320.74 186.154 322.173 186.421M322.173 186.421C329.508 187.792 336.438 187.796 340.882 179.721C346.533 169.456 334.585 166.724 326.707 174.602C323.582 177.967 322.29 182.311 322.173 186.421ZM322.173 186.421C322.032 191.377 323.599 195.994 325.723 198.149C331.631 204.143 339.898 198.314 347.386 198.314M368.454 175.355C369.439 183.682 364.553 196.569 367.47 201.943C368.227 203.338 372.953 191.637 373.378 190.126C374.878 184.787 380.271 179.362 385.194 177.325C400.202 171.116 392.087 193.08 393.072 201.943M464.956 141.875C467.309 161.569 464.201 179.315 467.309 196.015C467.372 196.357 468.601 206.417 468.895 201.943C469.209 197.168 469.323 190.816 470.865 186.187C473.263 178.986 480.479 176.568 485.211 183.702C489.461 190.109 488.167 198.156 490.974 205.052M272.937 133.997C274.353 150.99 273.5 166.063 272.525 176.402M272.525 176.402C272.152 180.353 271.761 183.612 271.472 186.023L271.452 186.187C270.28 195.964 270.968 198.989 271.952 200.958M272.525 176.402C270.197 177.088 267.712 178.035 265.059 179.294M272.525 176.402C284.019 173.018 291.657 176.019 296.57 179.294C302.478 183.233 300.509 194.065 292.631 197.839C283.066 202.421 268.998 201.943 267.029 200.958M190.244 169.309C182.366 165.37 175.198 166.866 171.534 169.309C162.672 175.217 167.591 179.564 174.488 182.11C178.493 183.589 199.357 185.281 196.129 191.847C193.532 197.132 183.412 198.35 178.104 199.98M433.884 178.183C431.298 168.791 417.553 169.296 415.888 181.141C414.837 188.622 417.368 198.287 424.019 202.028C431.466 206.218 440.039 203.877 447.463 197.038" stroke="#444444" stroke-width="10" stroke-linecap="round"/>
</svg>
